<svg viewBox="0 0 144 206" fill="none" xmlns="http://www.w3.org/2000/svg">
<path d="M3.59976 202.1C3.59976 202.1 -2.50025 204.2 14.1998 204.9C30.8998 205.6 119.2 205.9 128.2 204.9C137.3 203.9 155 204.5 131.5 202.1C108 199.7 83.8998 201.2 60.2998 199.7C36.6998 198.2 7.09976 199.7 3.59976 202.1Z" fill="#1B1C1E"/>
<path d="M118.4 132.1C118.4 132.1 125.8 130.2 126.2 122C126.2 122 134 126.1 134.3 136.8C134.6 147.5 126.3 152.1 126.3 152.1C126.3 152.1 115 145 118.4 132.1Z" fill="#FBAF5E"/>
<g opacity="0.62">
<path d="M124.601 143.1C124.701 143.1 124.801 143.1 124.901 143.1C124.901 143 124.901 143 124.601 143.1Z" fill="#3E240C"/>
<path d="M123.5 139L123.2 139.2C123.3 139.1 123.4 139.1 123.5 139Z" fill="#3E240C"/>
<path d="M128.5 141.7C128.6 141.7 128.6 141.6 128.7 141.6C128.6 141.7 128.6 141.7 128.5 141.7Z" fill="#3E240C"/>
<path d="M122.4 137.7C122.3 137.7 122.3 137.7 122.2 137.7C122.2 137.8 122.3 137.8 122.4 137.7Z" fill="#3E240C"/>
<path d="M125.1 145.7C126.2 145.5 125.2 145.8 126.3 145.7C126 145.6 125.9 145.6 126.4 145.5C127 145.5 126.4 145.7 127.3 145.6L126.9 145.5C127.4 145.4 128.1 145.4 128 145.3C126.7 145.4 128.4 144.8 128.2 144.7H128.3L128.9 144.4C128.9 144.4 128.9 144.4 129 144.4C128.9 144.4 128.9 144.4 128.8 144.4C129.4 144.2 129.8 144 129.6 143.8C128.9 143.9 129.2 143.3 128.6 143.4C128.8 143.4 128.8 143.5 128.7 143.6L127.8 143.8C127.8 143.6 128.6 143.6 128 143.6C126.8 143.9 128 143.8 127.9 143.9C127.6 143.9 127.4 143.9 127.2 143.9C127.2 144.1 126.8 144.4 128.1 144.3C127.9 144.4 127.4 144.5 127.2 144.4C127.9 144.4 126.6 144.6 127.2 144.6C126.1 144.7 126.6 144.4 125.9 144.4C126.7 144 125.9 144 125.6 143.8C126.4 143.6 127.1 143.6 127.6 143.4C128.1 143.1 127.1 143.3 126.6 143.3C126.8 143.1 127.9 142.9 127.9 142.7H128.5C129.6 142.2 128 142.7 128.2 142.5C127.9 142.6 127.6 142.7 127.7 142.8C127.3 142.9 127.1 142.9 127 142.8C126.4 142.9 125.9 143.1 126.1 142.8C126.8 142.7 126.6 142.5 126.9 142.4H127.1C126.8 142.4 126.9 142.2 126.8 142.2H127C126.7 142.2 125.9 142.4 126 142.3C126.3 142.2 127.3 142 127.1 142C127.6 141.9 127.7 142 127.6 142.2C127.7 142 128.5 141.7 128.6 141.8C129.2 141.6 128.3 141.7 128.5 141.6C128.3 141.7 128.1 141.7 127.9 141.8C128.7 141.5 127.9 141.5 127.3 141.7H127.8C127.1 141.9 126.6 141.9 126.3 142.1C127.3 141.7 125.7 141.9 126.5 141.5L126 141.8C126.2 141.4 124.9 141.6 124.6 141.5C125 141.4 126.1 141 125.8 141.3C125.9 141 126.9 140.8 127.4 140.4C127.7 140 126.3 140.7 125.9 140.8L126.2 140.9C124.8 141.3 126.2 140.3 125.3 140.4C125.6 140.2 125.5 140.4 125.7 140.3C126.3 139.9 125.5 140.2 125.2 140.3C125.3 140.1 125.5 139.8 126.3 139.5C126.4 139.3 125.8 139.8 125.5 139.8L125.7 139.7L124.7 140C124.9 139.8 125.2 139.4 126 138.9C125.7 138.7 124.2 139.8 123.8 139.8C124.1 139.5 124.4 139.5 124.7 139.3L124.5 139.2C125.4 138.8 125.1 139.1 126.1 138.6C125 139 125.7 138.6 124.9 138.8L124.8 138.9C124.1 139.2 124.4 138.7 124.2 138.7C124.6 138.5 124.8 138.6 125 138.6C125.3 138.3 124.7 138.1 123.8 138.6C123.9 138.4 124.1 138.1 124.6 137.9C124.6 137.6 123.3 138.6 123.4 138.3L124 137.8C124.7 136.9 122.8 138 123.5 137.1L122.7 137.7C123 137.4 123.1 137.2 123.3 136.9L123.6 136.8C124.2 136.2 122.9 137.2 123.3 136.7C123.1 136.9 122.6 137.4 122.4 137.6C123.2 137.7 122.4 138.9 123.5 138.8C123.6 138.7 123.7 138.6 123.8 138.5C123.6 138.7 123.9 138.6 123.5 138.9H123.4C123.7 138.9 122.7 139.6 122.8 139.7C123.4 139.4 122.7 140.1 123.6 139.4L123 139.8C123.4 139.6 123.8 139.3 124 139.3C124 139.4 123.6 139.7 123.3 139.7C123.1 140.2 123.4 140.5 123.9 140.7L123.4 140.8C123.2 141 124.4 140.7 123.1 141.2C123.7 141.1 122.9 141.8 124.2 141.2C123 141.9 123.8 141.8 124.1 142C125.2 141.5 124.5 142.1 125 141.9C124.1 142.2 124 142 123.5 142.3C124.9 142 122.7 143.3 125 142.6C124.9 142.7 124.8 142.7 124.7 142.7C124.7 142.7 124.3 142.9 124.3 143C124.7 142.9 124.9 142.7 125 142.8C124.9 142.9 124.3 143.1 124 143.2C124.6 143.2 124.9 143.4 125.8 143.2C125.6 143.3 125.1 143.5 124.9 143.5C125.7 143.6 124.8 143.8 125.3 144C125.2 143.9 124.3 144.2 124.7 143.9C123.4 144.3 125 144.3 124.4 144.6L125.3 144.5C125.5 144.6 124.7 144.8 124.3 144.7C123.8 145 124.3 145 124.4 145.2C124.3 145.2 124.1 145.2 124.2 145.2V145.4C124.4 145.4 124.9 145.4 125.4 145.4C125.1 145.9 124.8 145.9 125.1 145.7Z" fill="#3E240C"/>
<path d="M128.7 142.5C128.5 142.6 128.4 142.6 128.4 142.7C128.5 142.6 128.6 142.5 128.7 142.5Z" fill="#3E240C"/>
<path d="M127.201 148.4C128.501 148.4 127.001 148.2 127.301 148.1C127.501 148.2 128.301 148.2 128.601 148.2C126.901 148 128.901 148 128.601 147.7C129.201 147.7 129.201 147.8 129.801 147.9C129.401 147.7 129.101 147.5 128.201 147.4C128.201 147.1 128.501 146.9 128.301 146.8C128.701 147 129.201 146.8 130.101 146.9C129.001 146.7 127.701 146.3 126.301 146.2C127.301 146.1 127.401 146 128.401 146C129.001 145.6 127.401 146 127.701 145.7L127.501 145.9C127.201 145.8 126.201 145.9 125.501 145.9L125.701 146.2C125.001 146.3 125.101 146.1 124.901 146C124.001 146 124.301 146.2 123.601 146.3C124.201 146.3 124.001 146.4 124.301 146.5H123.901C123.501 146.7 124.501 146.7 124.501 146.8C124.401 146.8 124.301 146.8 124.201 146.8C124.601 146.8 125.201 146.8 125.301 146.9V146.8C126.201 146.9 126.801 147.1 127.801 146.9L127.501 147.3C126.501 147.3 125.001 147.3 124.801 147.1H124.401C123.801 147.2 125.201 147.4 126.001 147.3C128.401 147.4 126.101 147.8 127.101 148.1C126.401 148.1 126.201 148 125.701 147.9C125.601 147.8 125.601 147.8 126.201 147.8C125.801 147.5 124.101 147.9 124.301 147.5C124.601 147.3 125.401 147.7 125.401 147.4L123.601 147.3C123.701 147.4 124.001 147.5 124.201 147.7C124.801 148 124.801 148.3 124.701 148.5C124.601 148.7 124.301 148.8 124.301 148.8C124.401 149.7 124.501 150.7 124.401 151.7C124.601 152.1 124.501 152.1 126.101 152.8C126.501 152.9 126.401 152.6 127.001 152.9C126.401 152.7 126.101 152.4 126.201 152.3C126.801 152.5 126.501 152.5 126.601 152.5H126.701C127.001 152.6 127.201 152.7 127.201 152.8C128.201 152.9 128.101 152.4 126.901 151.9C127.601 151.9 127.901 152.3 128.301 152.5C128.901 152 128.901 151.5 129.101 150.9C128.001 150.7 128.401 150.7 127.601 150.5H128.001C127.801 150.5 127.001 150.3 126.801 150.4C127.801 150.2 125.301 149.8 124.801 149.5L125.401 149.6C125.301 149.4 125.301 149.4 125.001 149.2C126.201 149 125.201 149.5 126.601 149.5L126.401 149.4C127.001 149.5 128.001 149.7 128.401 149.8C127.501 149.4 128.801 149.4 128.101 149C128.801 149.1 129.301 149.4 129.301 149.5C129.401 149.4 128.901 149.1 129.501 149.2L128.701 149.1C128.601 148.9 129.501 149.2 130.001 149.1C130.301 148.5 127.701 148.8 127.201 148.4Z" fill="#3E240C"/>
<path d="M127.3 143.8C127.2 143.9 127.3 143.9 127.4 143.9C127.4 143.9 127.4 143.8 127.3 143.8Z" fill="#3E240C"/>
<path d="M130.2 144.3C129.8 144.4 129.8 144.3 129.3 144.4C129.6 144.4 129.6 144.6 130.2 144.3Z" fill="#3E240C"/>
<path d="M121.2 130.7C121 130.9 120.8 131 120.7 131.2L121 131.1L121.2 130.7Z" fill="#3E240C"/>
<path d="M120.9 131.7L120.8 132.1L121.6 131.3C121.5 131.1 121.1 131.8 120.9 131.7Z" fill="#3E240C"/>
<path d="M120.9 132.5L120.7 132.7C120.8 132.6 120.9 132.5 120.9 132.5Z" fill="#3E240C"/>
<path d="M121.2 132.1L121.8 131.5L121.2 131.8V132.1C121 132.2 121 132.4 120.9 132.5L121.3 132.1C121.3 132.1 121.2 132.2 121.2 132.1Z" fill="#3E240C"/>
<path d="M121.4 132.2C121.4 132.1 121.5 132.1 121.5 132C121.5 132.1 121.4 132.2 121.4 132.2Z" fill="#3E240C"/>
<path d="M120.8 133.7C121 133.4 121.3 133.2 121.6 132.9C121.7 132.5 120.9 133.5 121 133.1C121.6 132.8 121.2 132.7 121.5 132.3C121 132.8 120.7 133.3 120.8 133.7L121.1 133.2C121.1 133.3 120.9 133.5 120.8 133.7Z" fill="#3E240C"/>
<path d="M122.3 133.3L121.7 133.8C121.9 133.5 121.8 133.4 122.3 132.8C122.2 132.8 121.9 133.1 121.7 133.2C121.9 132.9 122.1 132.6 121.7 133C121.6 133.6 121.4 133.7 121.5 134.1C121.4 134.2 121.4 134.2 121.4 134.1L121.3 134.5C121.8 133.8 122.1 133.9 122.3 133.3Z" fill="#3E240C"/>
<path d="M122.101 134C122.001 133.9 121.401 134.4 121.101 134.8L121.701 134.6C121.701 134.5 121.601 134.5 122.101 134Z" fill="#3E240C"/>
<path d="M122.301 134.1C122.101 134.4 121.501 135.1 122.101 134.6C121.901 134.6 122.801 133.8 122.301 134.1Z" fill="#3E240C"/>
<path d="M122.5 135.4L122.7 134.8C123.4 134 123 134.7 123.4 134.4C123.4 134.1 123.2 134.4 122.6 134.7C122.6 134.6 122.1 134.9 121.9 135C122.7 134.8 121 136.5 122.5 135.4Z" fill="#3E240C"/>
<path d="M122.8 134.3L122.5 134.6L122.8 134.4V134.3Z" fill="#3E240C"/>
<path d="M122.2 136.7C121.4 137.6 122.9 136.5 122.7 137C122.6 137 122.6 137.1 122.4 137.2H122.6L122.4 137.4C122.9 136.9 123.3 136.9 123.8 136.6C124.3 136 123.1 137.1 123.6 136.4C123.9 136.2 124.3 135.9 124.5 135.8C124.2 135.9 123.8 136.2 123.5 136.4C123.4 136.4 123.7 136.1 123.9 135.9C123.5 136.1 122.7 136.8 122.8 136.5C123.2 136 123.6 135.9 123.3 135.9C122.5 136.7 123.3 135.6 122.7 136.1C122.8 135.8 123.2 135.3 123.5 135C122.8 135.6 122.2 136 121.9 136.1L122.6 135.8L121.9 136.6C122.2 136.3 122.2 136.5 122.2 136.7Z" fill="#3E240C"/>
<path d="M124.4 135.8C124.5 135.8 124.5 135.7 124.6 135.7C124.6 135.7 124.5 135.7 124.4 135.8Z" fill="#3E240C"/>
<path d="M123.5 134.8L123.7 134.7L123.9 134.4L123.5 134.8Z" fill="#3E240C"/>
<path d="M125.1 135.4C125.1 135.3 124.8 135.6 124.8 135.6L125.2 135.3L125.1 135.4Z" fill="#3E240C"/>
<path d="M124.6 136L124.2 136.4L124.6 136.2V136Z" fill="#3E240C"/>
<path d="M126.2 139.4C126.5 139.1 125.8 139.5 125.4 139.7C125.4 140 126 139.4 126.2 139.4Z" fill="#3E240C"/>
<path d="M128 141.3C128.4 141 127.7 141.1 127.7 141C127.4 141.2 127.7 141.3 128 141.3Z" fill="#3E240C"/>
<path d="M130.7 141.6C130.5 141.6 130.3 141.6 130.3 141.7L129 141.9C128.6 142.3 130.2 141.8 130.7 141.6Z" fill="#3E240C"/>
<path d="M131.2 142.9L130.7 142.8V142.9C130.2 143 129.9 143 129.5 143C129.8 143.1 130.3 143.1 131.2 142.9Z" fill="#3E240C"/>
<path d="M129.2 142.9C129.2 142.9 129.3 142.9 129.2 142.9C129.5 142.9 129.6 142.8 129.2 142.9Z" fill="#3E240C"/>
<path d="M129.3 143C129.4 143 129.4 143 129.4 143C129.4 143 129.4 142.9 129.3 143C129.1 143 129.2 143 129.3 143Z" fill="#3E240C"/>
<path d="M130.601 143.2L130.801 143.5L131.001 143.3C130.301 143.4 131.501 143 130.601 143.2Z" fill="#3E240C"/>
<path d="M130.301 145.1L129.501 145.2C129.401 145.4 131.001 145.5 129.801 145.8C130.301 145.7 130.701 145.9 130.901 145.6C130.201 145.6 130.101 145.3 130.301 145.1Z" fill="#3E240C"/>
<path d="M129.3 146.1C129.1 146.1 128.9 146.1 128.7 146.2C128.6 146.3 129 146.3 129.3 146.3C128.2 146.3 129.9 146.1 129.3 146.1Z" fill="#3E240C"/>
<path d="M129.401 147.1C129.401 147 129.301 147 129.101 147.1C129.201 147.3 130.001 147.2 130.501 147.3C131.001 147 129.801 146.9 129.401 147.1Z" fill="#3E240C"/>
<path d="M123.7 148.3C124.4 148.3 124.3 148.2 124 148.2C124.2 148.2 124 148.3 123.7 148.3Z" fill="#3E240C"/>
<path d="M129.2 148.6L129.3 148.5L128.3 148.4L129.2 148.6Z" fill="#3E240C"/>
<path d="M129.601 149.7L130.301 149.9L130.201 149.7H129.601Z" fill="#3E240C"/>
<path d="M129.4 149.9V150.1H129.7C129.9 150 129.4 150 129.4 149.9Z" fill="#3E240C"/>
<path d="M129.5 150.5C129.4 150.5 129.6 150.5 129.7 150.5L129.3 150.3L129.5 150.5Z" fill="#3E240C"/>
<path d="M124.9 152.2C124.3 152 124.6 152.2 124.5 152.1C124.6 152.2 125.5 152.4 124.9 152.2Z" fill="#3E240C"/>
</g>
<path d="M10.3001 92.6C10.3001 92.6 8.70014 135.7 12.4001 184.1C12.4001 184.1 6.20015 191.8 9.80015 202.1C9.80015 202.1 32.1001 202.1 35.0001 202.1C35.0001 202.1 41.0001 190.8 42.0001 175.3H61.8001C61.8001 175.3 69.2001 185.9 74.4001 194.8C76.0001 197.5 76.8001 201.1 78.0001 202.1C78.0001 202.1 120.9 202.1 121.6 202.1C122.3 202.1 129.7 177.1 128.1 155.4C128 154.3 127.9 153.2 127.8 152.1C127.2 147.5 126.1 143.7 124.7 140.3C123.3 137.1 121.7 134.3 119.7 131.7C115.1 125.5 109.1 120.8 103.1 115C94.2002 106.4 87.3001 88.9 87.3001 88.9C87.3001 88.9 90.1001 83.1 60.0001 81.7C29.9001 80.4 11.8001 84.7 10.3001 92.6Z" fill="#FBAF5E"/>
<path d="M61.8004 175.3L58.9004 170.9" stroke="#1B1C1E" stroke-width="1.2604" stroke-miterlimit="10" stroke-linecap="round" stroke-linejoin="round"/>
<path d="M80.6998 133.9C74.7998 146 68.3997 147.3 68.3997 147.3C60.8997 156.3 57.3997 156.5 57.3997 156.5C53.3997 161.8 45.6997 167.1 45.6997 167.1C39.8997 164.9 34.2997 155.9 34.2997 155.9C29.2997 155 24.8997 144.9 24.8997 144.9C15.1997 139.4 11.0997 125 9.79974 118.9C9.69974 102.9 10.0997 92.6999 10.0997 92.6999C11.6997 84.8999 29.6997 80.4999 59.7997 81.8999C89.8997 83.2999 87.0997 89.0999 87.0997 89.0999C87.0997 89.0999 88.1997 91.7999 89.9997 95.5999C96.6997 121.4 80.6998 133.9 80.6998 133.9Z" fill="#FFF0DD"/>
<path d="M87.1998 88.9C88.8998 93.3 87.9998 98.3 84.6998 101.7C76.5998 110.1 60.2998 123.7 41.3998 121C31.4998 119.6 24.1998 115.7 19.0998 111.7C13.1998 107.1 9.99976 100 10.1998 92.5C11.7998 84.7 29.7998 80.3 59.8998 81.7C89.9998 83.1 87.1998 88.9 87.1998 88.9Z" fill="#D1493B"/>
<path d="M51.0999 117.5C51.0999 112.7 47.1999 108.9 42.4999 108.9C37.7999 108.9 33.8999 112.8 33.8999 117.5C33.8999 119.7 34.6999 121.7 36.0999 123.2C37.6999 125 39.9999 126.1 42.4999 126.1C47.1999 126.1 51.0999 122.3 51.0999 117.5Z" fill="#FFAE1F"/>
<path d="M36 123.2C37.6 125 39.9 126.1 42.4 126.1C47.2 126.1 51 122.2 51 117.5" stroke="#1B1C1E" stroke-width="1.2604" stroke-miterlimit="10" stroke-linecap="round" stroke-linejoin="round"/>
<path d="M63.0002 33.5999C63.0002 33.5999 72.9002 15.9999 76.6002 3.09993C77.3002 0.699934 80.2002 -0.100066 82.1002 1.59993C89.3002 8.29993 101.4 25.4999 84.8001 56.3999C84.9001 56.3999 61.9002 47.7999 63.0002 33.5999Z" fill="#FBAF5E"/>
<path d="M84.1998 50.2999C82.6998 47.0999 80.7998 43.8999 78.0998 41.1999C75.0998 38.1999 74.3998 33.5999 75.9998 29.6999C78.7998 23.0999 81.1998 15.1999 82.2998 11.3999C82.5998 10.3999 83.8998 10.1999 84.4998 11.0999C95.9998 27.5999 84.1998 50.2999 84.1998 50.2999Z" fill="#BC763C"/>
<path d="M84.1995 50.2999C83.1995 52.3999 66.6995 45.7999 72.0995 37.5999C72.1995 37.3999 72.3995 37.0999 72.5995 36.8999C78.2995 40.0999 81.7995 45.0999 84.1995 50.2999Z" fill="#BC763C"/>
<path d="M93.8999 79.8C87.4999 91.7 75.7999 100.5 65.1999 106.6C50.9999 114.7 33.2999 113.3 20.6999 102.9C3.7999 89 -0.600097 74.9 0.999903 73.8C1.6999 73.3 2.8999 71 4.1999 68.2C4.1999 68.2 9.09991 67.6 18.0999 72.6C26.9999 77.5 33.5999 73.7 35.2999 57.3C37.1999 37.9 40.4999 32.6 40.4999 32.6C43.5999 32.3 47.3999 32.1 51.3999 32.3C51.3999 32.3 44.4999 59.9 52.3999 71.9C57.8999 80.3 69.3999 74.7 76.4999 70.9C83.4999 67.2 89.0999 66.9 89.0999 66.9C89.2999 67.5 89.3999 68.1 89.4999 68.5C90.9999 73.8 93.8999 79.8 93.8999 79.8Z" fill="#FFF0DD"/>
<path d="M35.2997 33.3999C36.6997 32.9999 38.3997 32.7999 40.4997 32.4999C40.4997 32.4999 37.1997 37.7999 35.2997 57.1999C33.6997 73.4999 27.0997 77.3999 18.0997 72.4999C9.19972 67.4999 4.19971 68.0999 4.19971 68.0999C6.79971 62.1999 9.79971 53.8999 9.79971 53.8999C-3.20029 24.9999 10.4997 8.29994 18.5997 1.49994C20.6997 -0.200065 23.8997 0.999932 24.2997 3.69993C26.6997 19.3999 35.2997 33.3999 35.2997 33.3999Z" fill="#FBAF5E"/>
<path d="M88.8995 66.8C88.8995 66.8 83.2995 67.1 76.2995 70.8C69.2995 74.5 57.7995 80.2 52.1995 71.8C44.3995 59.8 51.1995 32.2 51.1995 32.2C57.0995 32.4 63.2995 33.2 68.2995 35C69.3995 35.4 70.3995 35.8 71.3995 36.3C71.6995 36.5 72.0995 36.6 72.3995 36.8C78.0995 40 81.6995 45 83.9995 50.2C84.6995 51.6 85.1995 52.9999 85.6995 54.3999C87.4995 59.3999 88.2995 64 88.8995 66.8Z" fill="#FBAF5E"/>
<path d="M44.5997 81.3C42.3997 83.1 39.2997 83 37.1997 81.1C35.2997 79.4 33.1997 76.9 33.1997 74.1C33.1997 70.9 47.8997 70.8 48.2997 74.1C48.7997 76.9 46.6997 79.5 44.5997 81.3Z" fill="#1B1C1E"/>
<path d="M29.0999 66.6C29.0999 68.2 27.8999 69.9999 26.0999 69.8999C24.1999 69.6999 23.3999 68 23.3999 66.5C23.3999 64.9 24.7999 63.7 26.2999 63.7C27.8999 63.7 29.0999 65 29.0999 66.6Z" fill="#1B1C1E"/>
<path d="M59.7998 67.5C59.7998 69.1 58.4997 70.7 56.9997 70.6C55.3997 70.6 54.0997 68.9 54.1997 67.3C54.1997 65.7 55.5998 64.5 57.0998 64.5C58.5998 64.6 59.7998 65.9 59.7998 67.5Z" fill="#1B1C1E"/>
<path d="M20.0001 40.5999C16.3001 43.6999 13.5001 47.4999 11.8001 50.2999C-0.0998983 28.0998 17.0001 2.99985 17.6001 12.7998C17.9001 17.8998 20.4001 24.4998 22.6001 29.5998C24.4001 33.3998 23.3001 37.8999 20.0001 40.5999Z" fill="#BC763C"/>
<g opacity="0.62">
<path d="M35.9999 173.8C35.9999 173.9 35.8999 174 35.8999 174.1C35.8999 174.1 35.9999 174 35.9999 173.8Z" fill="#3E240C"/>
<path d="M32.2002 172L32.4002 171.7C32.4002 171.8 32.3002 171.9 32.2002 172Z" fill="#3E240C"/>
<path d="M35.2001 176.3C35.2001 176.4 35.2001 176.5 35.1001 176.8L35.2001 176.3Z" fill="#3E240C"/>
<path d="M34.1 177.4C34.1 177.5 34 177.5 34 177.6C34 177.5 34 177.5 34.1 177.4Z" fill="#3E240C"/>
<path d="M39.7002 174.2C39.7002 174.1 39.7002 174.1 39.7002 174.1C39.8002 174.1 39.7002 174.1 39.7002 174.2Z" fill="#3E240C"/>
<path d="M39.5996 175.3C39.6996 175.4 39.5996 175.4 39.5996 175.3V175.3Z" fill="#3E240C"/>
<path d="M39.8003 173.7C39.8003 173.8 39.8003 173.9 39.8003 174C39.8003 173.9 39.7003 173.9 39.8003 173.7Z" fill="#3E240C"/>
<path d="M36.1 173.7C36.1 173.8 36 173.8 36 173.9C36.1 173.8 36.1 173.7 36.1 173.7Z" fill="#3E240C"/>
<path d="M31.2002 170.7C31.2002 170.6 31.2002 170.6 31.2002 170.5C31.3002 170.5 31.3002 170.6 31.2002 170.7Z" fill="#3E240C"/>
<path d="M38.4998 174.7C38.0998 175.8 38.5998 174.8 38.2998 175.8C38.2998 175.5 38.2998 175.4 38.0998 175.9C37.9998 176.5 38.2998 175.9 37.9998 176.8V176.4C37.7998 176.8 37.6998 177.6 37.5998 177.5C37.8998 176.2 37.0998 177.9 36.9998 177.6V177.7L36.5998 178.2C36.5998 178.2 36.5998 178.2 36.5998 178.3C36.5998 178.2 36.5998 178.2 36.6998 178.1C36.3998 178.7 36.0998 179 35.9998 178.8C36.1998 178.1 35.5998 178.4 35.6998 177.7C35.6998 177.9 35.6998 177.9 35.8998 177.8L36.1998 177C36.0998 177 35.8998 177.8 35.8998 177.2C36.3998 176.1 36.0998 177.3 36.2998 177.2C36.3998 176.9 36.3998 176.7 36.3998 176.5C36.5998 176.5 36.8998 176.2 36.6998 177.4C36.7998 177.2 36.9998 176.7 36.9998 176.6C36.8998 177.3 37.2998 176 37.1998 176.6C37.4998 175.5 37.0998 175.9 37.1998 175.3C36.6998 176.1 36.7998 175.2 36.6998 175C36.3998 175.8 36.1998 176.5 35.9998 176.9C35.5998 177.3 35.9998 176.4 36.0998 175.9C35.7998 176.1 35.4998 177.1 35.2998 177.1L35.1998 177.6C34.5998 178.6 35.2998 177.1 35.0998 177.3C35.2998 177 35.3998 176.8 35.4998 176.9C35.6998 176.5 35.6998 176.3 35.6998 176.3C35.8998 175.8 36.0998 175.2 35.8998 175.4C35.6998 176.1 35.5998 175.8 35.3998 176.1V176.2C35.3998 175.9 35.2998 176 35.2998 175.8L35.1998 176C35.2998 175.7 35.5998 174.9 35.3998 175.1C35.1998 175.4 34.8998 176.3 34.8998 176.1C34.6998 176.6 34.7998 176.7 34.9998 176.6C34.7998 176.7 34.2998 177.4 34.4998 177.5C34.1998 178.1 34.4998 177.2 34.2998 177.4C34.3998 177.2 34.4998 177 34.5998 176.8C34.1998 177.6 34.2998 176.7 34.5998 176.2L34.4998 176.7C34.8998 176.1 34.8998 175.6 35.1998 175.3C34.5998 176.2 35.0998 174.6 34.5998 175.4L34.8998 174.9C34.4998 175.1 34.8998 173.8 34.8998 173.4C34.7998 173.7 34.0998 174.8 34.4998 174.5C34.0998 174.5 33.7998 175.5 33.3998 175.9C32.9998 176.1 33.8998 174.9 34.0998 174.5V174.8C34.6998 173.5 33.4998 174.7 33.6998 173.8C33.4998 174.1 33.5998 174 33.5998 174.1C33.0998 174.6 33.5998 173.9 33.6998 173.6C33.4998 173.6 33.1998 173.8 32.6998 174.5C32.3998 174.6 32.9998 174.1 33.0998 173.8L32.9998 173.9L33.4998 173C33.1998 173.2 32.7998 173.4 32.1998 174C32.0998 173.7 33.3998 172.4 33.4998 172C33.0998 172.3 33.0998 172.5 32.8998 172.8L32.7998 172.6C32.1998 173.4 32.5998 173.1 31.8998 174C32.4998 173 31.8998 173.6 32.2998 172.8L32.3998 172.7C32.8998 172 32.2998 172.3 32.2998 172.1C31.9998 172.5 32.0998 172.6 31.9998 172.8C31.5998 173 31.5998 172.5 32.1998 171.6C31.9998 171.7 31.5998 171.8 31.3998 172.2C31.0998 172.1 32.3998 171.1 31.9998 171.1L31.3998 171.7C30.3998 172.3 31.7998 170.6 30.7998 171.1L31.4998 170.4C31.1998 170.6 30.8998 170.7 30.5998 170.9L30.3998 171.2C29.6998 171.6 30.8998 170.6 30.3998 170.9C30.5998 170.7 31.1998 170.4 31.3998 170.2C31.3998 171 32.6998 170.4 32.3998 171.5C32.2998 171.6 32.1998 171.7 32.0998 171.8C32.2998 171.7 32.1998 171.9 32.5998 171.5V171.4C32.5998 171.7 33.4998 170.9 33.4998 170.9C33.0998 171.4 33.8998 170.9 33.0998 171.7L33.5998 171.2C33.3998 171.5 32.9998 171.9 32.8998 172.1C32.9998 172.1 33.2998 171.8 33.3998 171.5C33.8998 171.4 34.1998 171.8 34.2998 172.3L34.4998 171.8C34.6998 171.6 34.1998 172.7 34.8998 171.6C34.6998 172.1 35.4998 171.5 34.6998 172.7C35.5998 171.6 35.3998 172.5 35.4998 172.8C34.7998 173.8 35.4998 173.2 35.2998 173.7C35.7998 172.9 35.5998 172.8 35.8998 172.3C35.3998 173.7 36.9998 171.7 35.8998 173.8C35.9998 173.7 35.9998 173.6 36.0998 173.6C36.0998 173.6 36.3998 173.3 36.4998 173.2C36.2998 173.6 36.1998 173.7 36.1998 173.9C36.2998 173.9 36.5998 173.3 36.6998 173C36.5998 173.6 36.7998 173.9 36.3998 174.8C36.5998 174.6 36.7998 174.1 36.8998 173.9C36.8998 174.7 37.1998 173.9 37.2998 174.4C37.1998 174.3 37.5998 173.5 37.3998 173.8C37.9998 172.6 37.6998 174.2 38.1998 173.6L37.9998 174.4C38.0998 174.6 38.3998 173.8 38.3998 173.5C38.7998 173.1 38.6998 173.6 38.8998 173.7C38.8998 173.6 38.9998 173.4 38.8998 173.5H39.0998C39.0998 173.7 38.9998 174.2 38.7998 174.7C38.6998 174.7 38.7998 174.4 38.4998 174.7Z" fill="#3E240C"/>
<path d="M34.7998 177.7C34.8998 177.5 34.9998 177.4 34.9998 177.4C34.8998 177.6 34.7998 177.7 34.7998 177.7Z" fill="#3E240C"/>
<path d="M40.7999 177.3C40.5999 178.6 40.6999 177.1 40.4999 177.4C40.5999 177.6 40.3999 178.4 40.3999 178.7C40.4999 177 40.1999 179 39.8999 178.6C39.7999 179.1 39.8999 179.3 39.7999 179.9C39.6999 179.5 39.4999 179.2 39.5999 178.2C39.2999 178.1 39.0999 178.4 38.8999 178.2C38.9999 178.6 38.6999 179.1 38.6999 180C38.6999 178.9 38.5999 177.5 38.6999 176.1C38.3999 177.1 38.3999 177.2 38.0999 178.1C37.5999 178.7 38.2999 177.1 37.8999 177.3L38.0999 177.2C38.0999 176.9 38.2999 175.9 38.4999 175.2L38.7999 175.4C38.9999 174.7 38.7999 174.8 38.7999 174.6C38.9999 173.8 39.0999 174.1 39.2999 173.4C39.1999 174 39.2999 173.8 39.2999 174.1L39.3999 173.7C39.5999 173.3 39.4999 174.3 39.5999 174.3C39.5999 174.2 39.6999 174.1 39.6999 174.1C39.5999 174.5 39.5999 175 39.5999 175.2V175.1C39.4999 176 39.6999 176.6 39.2999 177.6L39.6999 177.4C39.8999 176.4 40.0999 174.9 39.9999 174.7L40.0999 174.3C40.2999 173.8 40.2999 175.1 39.9999 176C39.6999 178.4 40.4999 176.2 40.5999 177.2C40.6999 176.6 40.5999 176.3 40.5999 175.8C40.4999 175.7 40.4999 175.7 40.3999 176.2C40.1999 175.8 40.7999 174.2 40.4999 174.3C40.2999 174.6 40.4999 175.4 40.1999 175.4L40.3999 173.6C40.4999 173.7 40.5999 174 40.6999 174.2C40.8999 174.8 41.1999 174.9 41.3999 174.8C41.5999 174.7 41.6999 174.5 41.6999 174.5C42.5999 174.8 43.5999 175 44.4999 175.1C44.7999 175.3 44.8999 175.2 45.2999 177C45.2999 177.4 45.0999 177.2 45.1999 177.8C45.0999 177.1 44.8999 176.8 44.6999 176.9C44.6999 177.6 44.8999 177.2 44.8999 177.4C44.9999 177.7 44.9999 178 45.0999 178C44.9999 179 44.4999 178.8 44.2999 177.6C44.1999 178.3 44.4999 178.6 44.5999 179.1C43.9999 179.6 43.4999 179.6 42.8999 179.6C42.8999 178.4 42.7999 178.9 42.7999 178.1L42.6999 178.5C42.6999 178.3 42.6999 177.5 42.7999 177.3C42.3999 178.2 42.4999 175.7 42.2999 175.2V175.8C42.0999 175.7 42.0999 175.7 41.9999 175.3C41.5999 176.4 42.1999 175.5 41.9999 177L41.8999 176.8C41.8999 177.4 41.8999 178.4 41.9999 178.8C41.7999 177.8 41.4999 179.2 41.1999 178.4C41.1999 179.1 41.3999 179.6 41.4999 179.7C41.3999 179.8 41.1999 179.3 41.0999 179.9L41.1999 179.1C40.9999 179 41.0999 179.9 40.9999 180.4C40.3999 180.4 41.1999 177.8 40.7999 177.3Z" fill="#3E240C"/>
<path d="M36.2998 176.6C36.3998 176.6 36.3998 176.6 36.3998 176.7C36.3998 176.7 36.2998 176.6 36.2998 176.6Z" fill="#3E240C"/>
<path d="M36.6 178.4C36.6 178.5 36.5 178.6 36.5 178.7C36.5 178.6 36.6 178.5 36.6 178.4Z" fill="#3E240C"/>
<path d="M36.2998 179.5C36.4998 179.2 36.3998 179.1 36.4998 178.7C36.4998 179 36.6998 179 36.2998 179.5Z" fill="#3E240C"/>
<path d="M24.5 168.3C24.7 168.2 24.9 167.9 25.1 167.9L24.9 168.2L24.5 168.3Z" fill="#3E240C"/>
<path d="M25.5 168.2H25.9L25 168.8C24.8 168.6 25.6 168.4 25.5 168.2Z" fill="#3E240C"/>
<path d="M26.2998 168.3L26.4998 168.1C26.3998 168.2 26.3998 168.3 26.2998 168.3Z" fill="#3E240C"/>
<path d="M25.9002 168.6L25.2002 169.1L25.6002 168.6H25.9002C26.1002 168.4 26.2002 168.4 26.3002 168.4L25.8002 168.8C25.9002 168.6 26.0002 168.5 25.9002 168.6Z" fill="#3E240C"/>
<path d="M25.9002 168.8C25.8002 168.8 25.8002 168.9 25.7002 168.9C25.8002 168.8 25.9002 168.8 25.9002 168.8Z" fill="#3E240C"/>
<path d="M27.5 168.4C27.2 168.5 26.9 168.8 26.6 169C26.2 169 27.3 168.4 26.9 168.4C26.5 168.9 26.4 168.6 26 168.7C26.7 168.4 27.2 168.2 27.5 168.2L27.1 168.5C27 168.6 27.3 168.4 27.5 168.4Z" fill="#3E240C"/>
<path d="M26.8999 169.8L27.4999 169.3C27.1999 169.5 27.0999 169.3 26.3999 169.7C26.4999 169.6 26.6999 169.4 26.8999 169.2C26.4999 169.4 26.1999 169.5 26.6999 169.1C27.2999 169.1 27.3999 168.9 27.7999 169.1C27.8999 169 27.8999 169 27.8999 169L28.3999 168.9C27.3999 169.4 27.4999 169.7 26.8999 169.8Z" fill="#3E240C"/>
<path d="M27.4998 169.8C27.3998 169.6 27.9998 169.2 28.4998 169L28.1998 169.6C28.0998 169.5 28.0998 169.3 27.4998 169.8Z" fill="#3E240C"/>
<path d="M27.7 169.9C28.1 169.7 28.9 169.3 28.3 169.8C28.2 169.7 27.3 170.4 27.7 169.9Z" fill="#3E240C"/>
<path d="M28.9001 170.4L28.3001 170.5C27.4001 171 28.1001 170.8 27.8001 171.2C27.5001 171.1 27.8001 171 28.2001 170.5C28.1001 170.5 28.5001 170.1 28.7001 169.9C28.2001 170.5 30.3001 169.1 28.9001 170.4Z" fill="#3E240C"/>
<path d="M27.7002 170.5L28.0002 170.3L27.9002 170.6L27.7002 170.5Z" fill="#3E240C"/>
<path d="M30.1998 170.3C31.1998 169.7 29.8998 171 30.3998 170.8C30.3998 170.7 30.4998 170.7 30.5998 170.6V170.8L30.7998 170.6C30.1998 171.1 30.0998 171.4 29.7998 171.8C29.0998 172.2 30.3998 171.2 29.6998 171.6C29.4998 171.8 29.0998 172.2 28.8998 172.4C29.0998 172.1 29.3998 171.8 29.6998 171.5C29.6998 171.4 29.3998 171.7 29.1998 171.8C29.3998 171.4 30.2998 170.8 29.8998 170.8C29.2998 171.1 29.1998 171.5 29.1998 171.1C30.1998 170.5 28.8998 171 29.4998 170.5C29.1998 170.5 28.5998 170.9 28.2998 171.1C28.9998 170.6 29.4998 170 29.6998 169.8L29.2998 170.5L30.1998 169.9C29.7998 170.3 29.9998 170.3 30.1998 170.3Z" fill="#3E240C"/>
<path d="M28.8998 172.3C28.8998 172.4 28.7998 172.4 28.7998 172.5C28.7998 172.5 28.7998 172.4 28.8998 172.3Z" fill="#3E240C"/>
<path d="M28.1002 171.3L27.9002 171.4L27.7002 171.6L28.1002 171.3Z" fill="#3E240C"/>
<path d="M28.3999 172.9C28.3999 172.9 28.5999 172.7 28.6999 172.7L28.3999 173.1V172.9Z" fill="#3E240C"/>
<path d="M29.1001 172.6L29.6001 172.3L29.3001 172.6H29.1001Z" fill="#3E240C"/>
<path d="M32.2 174.8C31.9 175 32.3 174.5 32.6 174C32.9 174 32.3 174.5 32.2 174.8Z" fill="#3E240C"/>
<path d="M33.7 176.9C33.3 177.2 33.6 176.6 33.5 176.5C33.8 176.2 33.8 176.5 33.7 176.9Z" fill="#3E240C"/>
<path d="M33.5 179.5C33.6 179.3 33.6 179.1 33.7 179.1L34.2 177.9C34.6 177.6 33.8 179 33.5 179.5Z" fill="#3E240C"/>
<path d="M34.7002 180.3V179.8H34.8002C35.0002 179.3 35.0002 179.1 35.1002 178.7C35.1002 178.9 35.1002 179.4 34.7002 180.3Z" fill="#3E240C"/>
<path d="M35.0998 178.3C35.0998 178.3 35.0998 178.4 35.0998 178.3C34.9998 178.5 34.8998 178.7 35.0998 178.3Z" fill="#3E240C"/>
<path d="M35.2 178.5C35.2 178.6 35.2 178.6 35.2 178.6C35.1 178.5 35.1 178.5 35.2 178.5C35.2 178.2 35.1 178.3 35.2 178.5Z" fill="#3E240C"/>
<path d="M35.0998 179.7L35.3998 180L35.1998 180.2C35.3998 179.4 34.7998 180.5 35.0998 179.7Z" fill="#3E240C"/>
<path d="M37.1001 179.7L37.4001 179C37.6001 178.9 37.5001 180.6 37.9001 179.4C37.7001 179.8 37.9001 180.3 37.5001 180.4C37.6001 179.8 37.3001 179.6 37.1001 179.7Z" fill="#3E240C"/>
<path d="M38.1999 178.9C38.1999 178.7 38.2999 178.5 38.3999 178.3C38.4999 178.2 38.4999 178.6 38.3999 178.9C38.5999 177.9 38.0999 179.5 38.1999 178.9Z" fill="#3E240C"/>
<path d="M39.2002 179.2C39.1002 179.2 39.1002 179.1 39.2002 178.9C39.4002 179 39.1003 179.8 39.1003 180.4C38.8003 180.8 39.0002 179.6 39.2002 179.2Z" fill="#3E240C"/>
<path d="M41.4002 173.8C41.3002 174.4 41.2002 174.3 41.2002 174.1C41.2002 174.3 41.3002 174.1 41.4002 173.8Z" fill="#3E240C"/>
<path d="M40.6996 179.3L40.5996 179.4L40.6996 178.4V179.3Z" fill="#3E240C"/>
<path d="M41.6996 179.9L41.7996 180.6L41.5996 180.4L41.6996 179.9Z" fill="#3E240C"/>
<path d="M42 179.8L42.2 179.9L42.1 180.2C42 180.3 42 179.8 42 179.8Z" fill="#3E240C"/>
<path d="M42.5002 179.9C42.5002 179.8 42.5002 179.9 42.4002 180.1L42.2002 179.7L42.5002 179.9Z" fill="#3E240C"/>
<path d="M44.9995 175.7C44.8995 175 44.9995 175.4 44.9995 175.3C44.9995 175.4 45.0995 176.3 44.9995 175.7Z" fill="#3E240C"/>
</g>
<path d="M16.7001 202.1C16.7001 202.1 15.2001 194.1 18.8001 190.6" stroke="#1B1C1E" stroke-width="1.2604" stroke-miterlimit="10" stroke-linecap="round" stroke-linejoin="round"/>
<path d="M25.4003 202.1C25.4003 202.1 24.0003 198.2 27.1003 191.6" stroke="#1B1C1E" stroke-width="1.2604" stroke-miterlimit="10" stroke-linecap="round" stroke-linejoin="round"/>
<path d="M41.9999 175.3C41.9999 175.3 29.7999 176.4 23.3999 162.4" stroke="#1B1C1E" stroke-width="1.2604" stroke-miterlimit="10" stroke-linecap="round" stroke-linejoin="round"/>
<path d="M101.1 202.1C101.1 202.1 103.3 197 102.3 188.6C101.3 180.2 93.7998 146.4 94.6998 144.8" stroke="#1B1C1E" stroke-width="1.2604" stroke-miterlimit="10" stroke-linecap="round" stroke-linejoin="round"/>
<path d="M24.9999 144.8C24.9999 144.8 22.9999 139.9 22.3999 135.7" stroke="#1B1C1E" stroke-width="1.2604" stroke-miterlimit="10" stroke-linecap="round" stroke-linejoin="round"/>
<path d="M34.5002 155.9C34.5002 155.9 32.9002 153.1 32.2002 149.8" stroke="#1B1C1E" stroke-width="1.2604" stroke-miterlimit="10" stroke-linecap="round" stroke-linejoin="round"/>
<path d="M57.5 156.4C57.5 156.4 60.9 152.3 61.5 149.7" stroke="#1B1C1E" stroke-width="1.2604" stroke-miterlimit="10" stroke-linecap="round" stroke-linejoin="round"/>
<path d="M68.4004 147.2C68.4004 147.2 74.2004 140 75.1004 132.1" stroke="#1B1C1E" stroke-width="1.2604" stroke-miterlimit="10" stroke-linecap="round" stroke-linejoin="round"/>
<path d="M80.7002 133.9C80.7002 133.9 83.2002 129.2 83.7002 124.5" stroke="#1B1C1E" stroke-width="1.2604" stroke-miterlimit="10" stroke-linecap="round" stroke-linejoin="round"/>
<path d="M85.7996 202.1C85.7996 202.1 83.3996 198.7 83.8996 192.5" stroke="#1B1C1E" stroke-width="1.2604" stroke-miterlimit="10" stroke-linecap="round" stroke-linejoin="round"/>
<path d="M93.0001 202.1C93.0001 202.1 92.0001 196.8 93.0001 192.5" stroke="#1B1C1E" stroke-width="1.2604" stroke-miterlimit="10" stroke-linecap="round" stroke-linejoin="round"/>
<path d="M106.2 202.1C106.2 202.1 103.9 197.1 106.6 191.7" stroke="#1B1C1E" stroke-width="1.2604" stroke-miterlimit="10" stroke-linecap="round" stroke-linejoin="round"/>
<path d="M113.8 202.1C113.8 202.1 112.8 196.2 116.3 192.5" stroke="#1B1C1E" stroke-width="1.2604" stroke-miterlimit="10" stroke-linecap="round" stroke-linejoin="round"/>
<path d="M41.2002 87.5C41.2002 87.5 51.1002 92.4 56.3002 87.4C58.0002 85.8 58.3002 81.5 55.0002 78.5" stroke="#1B1C1E" stroke-width="1.2604" stroke-miterlimit="10" stroke-linecap="round" stroke-linejoin="round"/>
<path d="M40.8001 82.6C40.8001 82.6 40.5001 84.2 41.2001 87.5C41.4001 88.4 31.0001 92 27.0001 87.4C25.6001 85.8 25.0001 82.6 28.0001 79" stroke="#1B1C1E" stroke-width="1.2604" stroke-miterlimit="10" stroke-linecap="round" stroke-linejoin="round"/>
<path d="M37.2002 89.3999C37.2002 89.3999 38.6002 90.1999 41.4002 90.3999C44.4002 90.5999 45.6002 89.4999 45.6002 89.4999" stroke="#1B1C1E" stroke-width="1.2604" stroke-miterlimit="10" stroke-linecap="round" stroke-linejoin="round"/>
<path d="M100 175.3C100 175.3 104.1 175.2 106.6 170.9" stroke="#1B1C1E" stroke-width="1.2604" stroke-miterlimit="10" stroke-linecap="round" stroke-linejoin="round"/>
<path d="M127.7 152.1C127.1 147.5 126 143.7 124.6 140.3C123.2 137.1 121.6 134.3 119.6 131.7" stroke="#1B1C1E" stroke-width="1.2604" stroke-miterlimit="10" stroke-linecap="round" stroke-linejoin="round"/>
<g opacity="0.62">
<path d="M101.699 174.8C101.799 174.9 101.799 175 101.899 175.1C101.899 175.1 101.899 175 101.699 174.8Z" fill="#3E240C"/>
<path d="M104.8 171.9L104.5 171.7C104.6 171.8 104.7 171.8 104.8 171.9Z" fill="#3E240C"/>
<path d="M103.199 176.9C103.199 177 103.299 177.1 103.399 177.3L103.199 176.9Z" fill="#3E240C"/>
<path d="M104.699 177.7C104.799 177.7 104.799 177.8 104.899 177.8C104.799 177.7 104.699 177.7 104.699 177.7Z" fill="#3E240C"/>
<path d="M98.2992 176.3C98.2992 176.3 98.2992 176.2 98.1992 176.2C98.2992 176.2 98.2992 176.2 98.2992 176.3Z" fill="#3E240C"/>
<path d="M98.3999 176.9C98.3999 176.9 98.2999 176.9 98.3999 176.9V177C98.3999 177.1 98.3999 177 98.3999 176.9Z" fill="#3E240C"/>
<path d="M98.7998 182.3L98.8998 182.7C98.8998 182.5 98.8998 182.4 98.7998 182.3Z" fill="#3E240C"/>
<path d="M98.0996 175.8C98.0996 175.9 98.1996 176 98.1996 176.1C98.1996 176 98.1996 176 98.0996 175.8Z" fill="#3E240C"/>
<path d="M101.6 174.7C101.7 174.8 101.7 174.8 101.7 174.8C101.7 174.8 101.6 174.7 101.6 174.7Z" fill="#3E240C"/>
<path d="M105.5 170.4C105.5 170.3 105.5 170.3 105.4 170.2C105.2 170.3 105.3 170.3 105.5 170.4Z" fill="#3E240C"/>
<path d="M99.6 176.4C100.3 177.3 99.5 176.5 100.1 177.4C100 177.2 100 177 100.3 177.4C100.6 178 100.1 177.4 100.6 178.2L100.5 177.8C100.8 178.1 101.2 178.8 101.2 178.7C100.5 177.6 101.8 178.9 101.8 178.6V178.7L102.3 179.1C102.3 179.1 102.3 179.1 102.3 179.2C102.3 179.1 102.2 179.1 102.2 179C102.7 179.5 103.1 179.7 103.1 179.5C102.7 178.9 103.4 178.9 103 178.4C103.1 178.6 103 178.6 102.8 178.5L102.2 177.8C102.3 177.7 102.7 178.4 102.5 177.9C101.7 177 102.3 178 102.2 178C102.1 177.8 101.9 177.5 101.9 177.4C101.7 177.5 101.3 177.3 101.9 178.3C101.7 178.1 101.4 177.7 101.4 177.6C101.7 178.3 100.9 177.1 101.2 177.7C100.6 176.8 101.1 177 100.8 176.5C101.5 177.1 101.2 176.3 101.2 176C101.7 176.6 102.1 177.2 102.5 177.6C103 177.9 102.4 177.1 102.2 176.7C102.5 176.8 103.1 177.7 103.4 177.6L103.6 178.1C104.5 178.9 103.4 177.7 103.6 177.8C103.4 177.6 103.2 177.4 103.1 177.5C102.8 177.2 102.8 177 102.8 176.9C102.5 176.5 102 176 102.3 176.1C102.7 176.7 102.7 176.4 103 176.6L103.1 176.7C103 176.5 103.2 176.4 103.1 176.3L103.2 176.4C103.1 176.1 102.5 175.5 102.7 175.6C102.9 175.8 103.5 176.6 103.5 176.4C103.9 176.8 103.8 176.9 103.6 176.9C103.8 176.9 104.5 177.5 104.4 177.6C104.9 178 104.3 177.3 104.6 177.4C104.4 177.3 104.3 177.1 104.2 177C104.8 177.6 104.5 176.8 104 176.4L104.2 176.9C103.7 176.4 103.5 176 103.1 175.7C104 176.4 103 175.1 103.7 175.6L103.2 175.3C103.7 175.3 102.8 174.3 102.8 173.9C103 174.2 104 175 103.5 174.9C103.9 174.8 104.5 175.6 105 175.9C105.5 176 104.2 175.1 103.9 174.8L104 175.1C103 174.1 104.6 174.8 104.1 174.1C104.4 174.3 104.2 174.3 104.3 174.4C105 174.7 104.3 174.2 104.1 174C104.3 174 104.6 174 105.3 174.6C105.6 174.6 104.8 174.3 104.7 174.1L104.9 174.2L104.2 173.5C104.5 173.6 105 173.7 105.7 174.1C105.7 173.7 104.1 172.9 103.9 172.5C104.4 172.6 104.5 172.9 104.7 173.1V172.9C105.5 173.5 105 173.4 106 174C105.1 173.2 105.8 173.6 105.3 173H105.2C104.6 172.5 105.2 172.6 105.1 172.4C105.5 172.7 105.5 172.8 105.6 173C106 173.1 105.9 172.5 105 171.9C105.2 171.9 105.6 171.9 106 172.3C106.3 172.1 104.7 171.5 105.1 171.4L105.8 171.8C106.9 172 105.1 170.9 106.2 171.1L105.3 170.7C105.7 170.8 105.9 170.8 106.3 170.9L106.5 171.2C107.3 171.4 105.9 170.8 106.4 170.9C106.1 170.8 105.5 170.6 105.2 170.5C105.5 171.2 104 171.1 104.6 172C104.7 172 104.8 172.1 105 172.2C104.8 172.1 104.9 172.4 104.5 172.1L104.4 172C104.5 172.2 103.4 171.7 103.4 171.8C103.9 172.2 103 171.9 104 172.4L103.4 172.1C103.7 172.3 104.2 172.6 104.4 172.8C104.3 172.8 103.9 172.6 103.7 172.4C103.1 172.5 103 172.9 103.1 173.4L102.7 173C102.4 172.9 103.3 173.8 102.2 172.9C102.5 173.4 101.6 173 102.7 173.9C101.6 173.1 102 173.9 102 174.2C102.9 175 102.1 174.6 102.5 175C101.8 174.4 101.9 174.2 101.5 173.8C102.4 174.9 100.3 173.6 101.9 175.3C101.8 175.3 101.7 175.2 101.7 175.1C101.7 175.1 101.3 174.9 101.2 174.9C101.5 175.2 101.7 175.3 101.7 175.5C101.6 175.5 101.2 175 100.9 174.8C101.2 175.3 101.1 175.7 101.7 176.4C101.5 176.2 101.1 175.9 101 175.7C101.3 176.4 100.7 175.8 100.8 176.3C100.9 176.2 100.2 175.5 100.6 175.7C99.6 174.7 100.4 176.2 99.8 175.8L100.3 176.5C100.3 176.7 99.8 176.1 99.7 175.8C99.2 175.5 99.4 176 99.3 176.1C99.2 176 99.1 175.9 99.2 175.9L99 176C99.1 176.2 99.3 176.6 99.6 177C99.4 176.5 99.3 176.2 99.6 176.4Z" fill="#3E240C"/>
<path d="M104.1 178.2C103.9 178.1 103.8 178 103.8 178C103.9 178 104 178.1 104.1 178.2Z" fill="#3E240C"/>
<path d="M98.1996 179.6C98.7996 180.8 98.2996 179.3 98.4996 179.6C98.4996 179.8 98.7996 180.5 98.9996 180.8C98.3996 179.2 99.2996 181 99.3996 180.6C99.6996 181.1 99.5996 181.2 99.7996 181.8C99.7996 181.3 99.8996 181 99.4996 180.2C99.6996 180.1 100.1 180.2 100.1 180C100.1 180.4 100.5 180.8 100.8 181.6C100.5 180.5 100.2 179.2 99.6996 177.9C100.3 178.8 100.4 178.8 100.8 179.7C101.5 180.1 100.4 178.8 100.8 178.9L100.6 178.8C100.5 178.5 99.9996 177.6 99.5996 177L99.3996 177.3C98.9996 176.7 99.1996 176.7 99.1996 176.5C98.7996 175.7 98.6996 176.1 98.3996 175.5C98.6996 176 98.4996 175.9 98.5996 176.2L98.3996 175.9C98.0996 175.6 98.4996 176.5 98.3996 176.5C98.2996 176.4 98.2996 176.3 98.2996 176.3C98.4996 176.7 98.6996 177.2 98.6996 177.3V177.2C99.0996 178 99.0996 178.7 99.7996 179.5L99.2996 179.4C98.8996 178.5 98.1996 177.1 98.2996 176.9L98.0996 176.5C97.6996 176.1 98.1996 177.4 98.5996 178.1C99.5996 180.3 98.1996 178.4 98.3996 179.4C98.0996 178.8 98.0996 178.5 97.9996 178.1C97.9996 178 98.0996 178 98.2996 178.5C98.3996 178 97.2996 176.7 97.6996 176.7C97.9996 176.9 97.9996 177.7 98.2996 177.7L97.5996 176C97.4996 176.1 97.4996 176.4 97.4996 176.7C97.4996 177.4 97.1996 177.5 96.9996 177.5C96.7996 177.5 96.5996 177.3 96.5996 177.3C95.7996 177.8 94.9996 178.3 94.0996 178.7C93.8996 179 93.7996 178.9 93.8996 180.7C93.9996 181.1 94.1996 180.9 94.1996 181.5C94.0996 180.8 94.1996 180.5 94.3996 180.5C94.4996 181.1 94.2996 180.8 94.3996 181C94.3996 181.3 94.4996 181.6 94.3996 181.6C94.7996 182.5 95.1996 182.2 94.9996 181C95.2996 181.6 95.0996 182 95.0996 182.6C95.8996 182.9 96.2996 182.7 96.8996 182.6C96.4996 181.5 96.6996 181.9 96.5996 181.1L96.7996 181.5C96.6996 181.3 96.4996 180.5 96.2996 180.3C96.8996 181 96.1996 178.7 96.1996 178.2L96.3996 178.8C96.4996 178.6 96.5996 178.6 96.5996 178.3C97.2996 179.2 96.3996 178.6 97.0996 179.9V179.6C97.2996 180.1 97.5996 181.1 97.5996 181.5C97.4996 180.5 98.1996 181.7 98.1996 180.9C98.3996 181.5 98.2996 182.1 98.2996 182.2C98.3996 182.2 98.4996 181.7 98.6996 182.3L98.3996 181.5C98.4996 181.3 98.6996 182.2 98.9996 182.7C99.4996 182.3 97.9996 180.2 98.1996 179.6Z" fill="#3E240C"/>
<path d="M102.299 177.5C102.199 177.5 102.199 177.5 102.199 177.6C102.199 177.6 102.299 177.6 102.299 177.5Z" fill="#3E240C"/>
<path d="M102.5 179.3C102.6 179.4 102.6 179.5 102.7 179.6C102.7 179.5 102.6 179.4 102.5 179.3Z" fill="#3E240C"/>
<path d="M103.199 180.3C102.999 180 102.999 180 102.699 179.6C102.799 179.9 102.699 180 103.199 180.3Z" fill="#3E240C"/>
<path d="M111.099 166.1C110.899 166 110.599 165.9 110.399 165.9L110.599 166.1H111.099Z" fill="#3E240C"/>
<path d="M110.099 166.3L109.699 166.4L110.799 166.7C110.899 166.5 110.099 166.5 110.099 166.3Z" fill="#3E240C"/>
<path d="M109.4 166.6L109.1 166.5C109.2 166.6 109.3 166.6 109.4 166.6Z" fill="#3E240C"/>
<path d="M109.899 166.8L110.699 167L110.199 166.6L109.899 166.8C109.699 166.7 109.599 166.7 109.399 166.7L109.999 166.9C109.899 166.8 109.799 166.7 109.899 166.8Z" fill="#3E240C"/>
<path d="M108.3 167.1C108.6 167.1 109 167.3 109.4 167.4C109.8 167.3 108.6 167 109 167C109.6 167.4 109.5 167 110 167C109.2 166.9 108.7 166.9 108.4 167L108.9 167.1C108.8 167.2 108.5 167 108.3 167.1Z" fill="#3E240C"/>
<path d="M109.3 168.3L108.6 168C109 168.1 109 167.9 109.8 168.1C109.7 168 109.4 167.9 109.2 167.8C109.6 167.8 109.9 167.9 109.4 167.7C108.8 167.9 108.6 167.8 108.3 168C108.1 168 108.2 167.9 108.2 167.9L107.8 168C108.7 168 108.7 168.3 109.3 168.3Z" fill="#3E240C"/>
<path d="M108.599 168.4C108.599 168.2 107.899 168 107.399 167.9L107.899 168.4C107.999 168.3 107.899 168.1 108.599 168.4Z" fill="#3E240C"/>
<path d="M108.6 168.6C108.2 168.5 107.3 168.4 108.1 168.7C107.9 168.5 109 168.9 108.6 168.6Z" fill="#3E240C"/>
<path d="M107.5 169.4L108.1 169.3C109.1 169.6 108.4 169.5 108.8 169.8C109.1 169.6 108.7 169.6 108.2 169.2C108.3 169.1 107.8 168.9 107.6 168.7C108.2 169.3 105.8 168.5 107.5 169.4Z" fill="#3E240C"/>
<path d="M108.7 169.2L108.3 169L108.6 169.3L108.7 169.2Z" fill="#3E240C"/>
<path d="M106.2 169.7C105 169.4 106.7 170.3 106.2 170.2C106.1 170.2 106 170.1 105.9 170V170.2L105.6 170.1C106.3 170.4 106.5 170.6 106.9 170.9C107.7 171 106.1 170.5 106.9 170.7C107.2 170.9 107.6 171.1 107.9 171.2C107.6 171 107.2 170.8 106.9 170.6C106.9 170.5 107.2 170.7 107.5 170.8C107.2 170.5 106.2 170.1 106.5 170C107.1 170.1 107.4 170.4 107.2 170.1C106.1 169.8 107.4 170 106.8 169.6C107.1 169.5 107.8 169.7 108.1 169.8C107.3 169.5 106.6 169.1 106.4 168.9L107 169.4L106 169.1C106.6 169.6 106.5 169.6 106.2 169.7Z" fill="#3E240C"/>
<path d="M108.1 171.2C108.2 171.2 108.2 171.3 108.2 171.3C108.3 171.4 108.2 171.3 108.1 171.2Z" fill="#3E240C"/>
<path d="M108.6 170L108.7 170.1L109 170.2L108.6 170Z" fill="#3E240C"/>
<path d="M108.699 171.7C108.699 171.7 108.399 171.5 108.399 171.6L108.799 171.8L108.699 171.7Z" fill="#3E240C"/>
<path d="M107.999 171.6L107.399 171.4L107.799 171.6H107.999Z" fill="#3E240C"/>
<path d="M105.7 174.6C106.1 174.7 105.5 174.3 105.1 174C104.8 174 105.5 174.3 105.7 174.6Z" fill="#3E240C"/>
<path d="M104.799 177C105.199 177.2 104.799 176.6 104.899 176.6C104.599 176.4 104.699 176.7 104.799 177Z" fill="#3E240C"/>
<path d="M105.799 179.5C105.699 179.3 105.599 179.2 105.499 179.2L104.699 178.2C104.299 178 105.399 179.1 105.799 179.5Z" fill="#3E240C"/>
<path d="M104.9 180.5L104.7 180H104.6C104.3 179.6 104.2 179.4 104 179C104.1 179.4 104.3 179.9 104.9 180.5Z" fill="#3E240C"/>
<path d="M104 178.8V178.9C104.1 179 104.2 179.1 104 178.8Z" fill="#3E240C"/>
<path d="M103.9 179C103.9 179 103.9 179.1 104 179.1C104 179 104 179 103.9 179C103.8 178.8 103.9 178.8 103.9 179Z" fill="#3E240C"/>
<path d="M104.399 180.2L104.199 180.5L104.499 180.6C103.999 180 104.899 180.9 104.399 180.2Z" fill="#3E240C"/>
<path d="M102.5 180.8L102 180.2C101.7 180.2 102.4 181.7 101.6 180.8C101.9 181.1 101.9 181.6 102.3 181.7C102 181 102.2 180.7 102.5 180.8Z" fill="#3E240C"/>
<path d="M101.2 180.3C101.1 180.1 101 180 100.8 179.8C100.7 179.8 100.8 180.1 101 180.4C100.5 179.5 101.4 180.9 101.2 180.3Z" fill="#3E240C"/>
<path d="M100.299 180.9C100.299 180.9 100.399 180.7 100.199 180.6C100.099 180.7 100.499 181.5 100.699 182C101.099 182.3 100.599 181.2 100.299 180.9Z" fill="#3E240C"/>
<path d="M96.5996 176.4C96.8996 177 96.9996 176.9 96.8996 176.6C96.8996 176.8 96.7996 176.6 96.5996 176.4Z" fill="#3E240C"/>
<path d="M98.8992 181.4L98.9992 181.5L98.6992 180.5L98.8992 181.4Z" fill="#3E240C"/>
<path d="M98.0996 182.3L98.1996 183L98.3996 182.8L98.0996 182.3Z" fill="#3E240C"/>
<path d="M97.7996 182.2L97.5996 182.3L97.7996 182.5C97.9996 182.7 97.7996 182.3 97.7996 182.2Z" fill="#3E240C"/>
<path d="M97.2998 182.6C97.2998 182.5 97.3998 182.6 97.3998 182.7V182.2L97.2998 182.6Z" fill="#3E240C"/>
<path d="M93.6996 179.2C93.5996 178.5 93.5996 179 93.5996 178.8C93.5996 179 93.7996 179.9 93.6996 179.2Z" fill="#3E240C"/>
</g>
</svg>
